<svg id="Lager_1" data-name="Lager 1" xmlns="http://www.w3.org/2000/svg" width="1863.31" height="990.16" viewBox="0 0 1863.31 990.16">
  <defs>
    <style>
      .cls-1, .cls-3 {
        fill: none;
        stroke: rgba(1,1,1,.5);
        stroke-miterlimit: 10;
        stroke-width: 8px;
      }

      .cls-1, .cls-2 {
        opacity: 0.23;
      }
    </style>
  </defs>
  <title>bottomPattern</title>
  <rect class="cls-1" x="133.51" y="107.94" width="55" height="53.23"/>
  <g class="cls-2">
    <polygon class="cls-3" points="224.36 343.53 189.74 378.16 258.99 378.16 224.36 343.53"/>
    <line class="cls-3" x1="189.5" y1="378.39" x2="189.74" y2="378.16"/>
    <line class="cls-3" x1="258.99" y1="378.16" x2="259.22" y2="378.39"/>
    <polyline class="cls-3" points="259.22 378.39 258.99 378.16 189.74 378.16 189.5 378.39"/>
  </g>
  <polygon class="cls-1" points="521.31 375.72 494.85 380.94 494.85 320.2 521.31 314.63 521.31 375.72"/>
  <circle class="cls-1" cx="382.06" cy="211.06" r="25.06"/>
  <rect class="cls-1" x="681.51" y="372.94" width="55" height="53.23"/>
  <g class="cls-2">
    <polygon class="cls-3" points="772.36 608.53 737.74 643.16 806.99 643.16 772.36 608.53"/>
    <line class="cls-3" x1="737.5" y1="643.39" x2="737.74" y2="643.16"/>
    <line class="cls-3" x1="806.99" y1="643.16" x2="807.22" y2="643.39"/>
    <polyline class="cls-3" points="807.22 643.39 806.99 643.16 737.74 643.16 737.5 643.39"/>
  </g>
  <polygon class="cls-1" points="1069.31 640.72 1042.85 645.94 1042.85 585.2 1069.31 579.63 1069.31 640.72"/>
  <circle class="cls-1" cx="930.06" cy="476.06" r="25.06"/>
  <g class="cls-2">
    <polygon class="cls-3" points="697.36 161.53 662.74 196.16 731.99 196.16 697.36 161.53"/>
    <line class="cls-3" x1="662.5" y1="196.39" x2="662.74" y2="196.16"/>
    <line class="cls-3" x1="731.99" y1="196.16" x2="732.22" y2="196.39"/>
    <polyline class="cls-3" points="732.22 196.39 731.99 196.16 662.74 196.16 662.5 196.39"/>
  </g>
  <polygon class="cls-1" points="994.31 193.72 967.85 198.94 967.85 138.2 994.31 132.63 994.31 193.72"/>
  <circle class="cls-1" cx="855.06" cy="29.06" r="25.06"/>
  <rect class="cls-1" x="1154.51" y="190.94" width="55" height="53.23"/>
  <g class="cls-2">
    <polygon class="cls-3" points="1245.36 426.53 1210.74 461.16 1279.99 461.16 1245.36 426.53"/>
    <line class="cls-3" x1="1210.5" y1="461.39" x2="1210.74" y2="461.16"/>
    <line class="cls-3" x1="1279.99" y1="461.16" x2="1280.22" y2="461.39"/>
    <polyline class="cls-3" points="1280.22 461.39 1279.99 461.16 1210.74 461.16 1210.5 461.39"/>
  </g>
  <polygon class="cls-1" points="1542.31 458.72 1515.85 463.94 1515.85 403.2 1542.31 397.63 1542.31 458.72"/>
  <circle class="cls-1" cx="1403.06" cy="294.06" r="25.06"/>
  <rect class="cls-1" x="1471.51" y="4.94" width="55" height="53.23"/>
  <g class="cls-2">
    <polygon class="cls-3" points="1562.36 240.53 1527.74 275.16 1596.99 275.16 1562.36 240.53"/>
    <line class="cls-3" x1="1527.5" y1="275.39" x2="1527.74" y2="275.16"/>
    <line class="cls-3" x1="1596.99" y1="275.16" x2="1597.22" y2="275.39"/>
    <polyline class="cls-3" points="1597.22 275.39 1596.99 275.16 1527.74 275.16 1527.5 275.39"/>
  </g>
  <polygon class="cls-1" points="1859.31 272.72 1832.85 277.94 1832.85 217.2 1859.31 211.63 1859.31 272.72"/>
  <circle class="cls-1" cx="1720.06" cy="108.06" r="25.06"/>
  <rect class="cls-1" x="206.51" y="611.94" width="55" height="53.23"/>
  <g class="cls-2">
    <polygon class="cls-3" points="297.36 847.53 262.74 882.16 331.99 882.16 297.36 847.53"/>
    <line class="cls-3" x1="262.5" y1="882.39" x2="262.74" y2="882.16"/>
    <line class="cls-3" x1="331.99" y1="882.16" x2="332.22" y2="882.39"/>
    <polyline class="cls-3" points="332.22 882.39 331.99 882.16 262.74 882.16 262.5 882.39"/>
  </g>
  <polygon class="cls-1" points="594.31 879.72 567.85 884.94 567.85 824.2 594.31 818.63 594.31 879.72"/>
  <circle class="cls-1" cx="455.06" cy="715.06" r="25.06"/>
  <rect class="cls-1" x="846.51" y="715.94" width="55" height="53.23"/>
  <g class="cls-2">
    <polygon class="cls-3" points="937.36 951.53 902.74 986.16 971.99 986.16 937.36 951.53"/>
    <line class="cls-3" x1="902.5" y1="986.39" x2="902.74" y2="986.16"/>
    <line class="cls-3" x1="971.99" y1="986.16" x2="972.22" y2="986.39"/>
    <polyline class="cls-3" points="972.22 986.39 971.99 986.16 902.74 986.16 902.5 986.39"/>
  </g>
  <circle class="cls-1" cx="1095.06" cy="819.06" r="25.06"/>
  <g class="cls-2">
    <polygon class="cls-3" points="1685.36 631.53 1650.74 666.16 1719.99 666.16 1685.36 631.53"/>
    <line class="cls-3" x1="1650.5" y1="666.39" x2="1650.74" y2="666.16"/>
    <line class="cls-3" x1="1719.99" y1="666.16" x2="1720.22" y2="666.39"/>
    <polyline class="cls-3" points="1720.22 666.39 1719.99 666.16 1650.74 666.16 1650.5 666.39"/>
  </g>
  <polygon class="cls-1" points="1507.31 902.72 1480.85 907.94 1480.85 847.2 1507.31 841.63 1507.31 902.72"/>
  <circle class="cls-1" cx="1368.06" cy="738.06" r="25.06"/>
  <rect class="cls-1" x="1759.51" y="738.94" width="55" height="53.23"/>
  <circle class="cls-1" cx="29.06" cy="509.06" r="25.06"/>
</svg>
