<svg id="Lager_1" data-name="Lager 1" xmlns="http://www.w3.org/2000/svg" viewBox="0 0 947.13 909.06"><defs><style>.cls-1{fill:#496389;}.cls-1,.cls-2{opacity:0.31;}.cls-2{fill:none;stroke:#5b584d;stroke-miterlimit:10;stroke-width:6px;}</style></defs><title>bottomPattern</title><circle class="cls-1" cx="532.42" cy="14.47" r="4.24"/><circle class="cls-2" cx="660.23" cy="41.55" r="7.34"/><circle class="cls-2" cx="511.94" cy="102.54" r="7.34"/><circle class="cls-1" cx="630.88" cy="128.08" r="4.24"/><circle class="cls-2" cx="924.78" cy="10.34" r="7.34"/><circle class="cls-2" cx="819.63" cy="127.98" r="7.34"/><circle class="cls-2" cx="563.24" cy="216.32" r="7.34"/><circle class="cls-2" cx="729.37" cy="201.92" r="7.34"/><circle class="cls-2" cx="672.23" cy="296.03" r="7.34"/><circle class="cls-2" cx="544.51" cy="342.6" r="7.34"/><circle class="cls-2" cx="665.03" cy="426.62" r="7.34"/><circle class="cls-2" cx="796.11" cy="368.05" r="7.34"/><circle class="cls-2" cx="876.77" cy="249.45" r="7.34"/><circle class="cls-1" cx="778.77" cy="55.58" r="4.24"/><circle class="cls-1" cx="489.24" cy="182.82" r="4.24"/><circle class="cls-1" cx="661.13" cy="234.67" r="4.24"/><circle class="cls-1" cx="555.98" cy="284.12" r="4.24"/><circle class="cls-1" cx="555.98" cy="419.52" r="4.24"/><circle class="cls-1" cx="720.67" cy="370.07" r="4.24"/><circle class="cls-1" cx="774.93" cy="290.85" r="4.24"/><circle class="cls-1" cx="906" cy="174.65" r="4.24"/><circle class="cls-1" cx="824.38" cy="448.81" r="4.24"/><circle class="cls-1" cx="920.89" cy="324.94" r="4.24"/><circle class="cls-1" cx="47.42" cy="25.47" r="4.24"/><circle class="cls-2" cx="175.23" cy="52.55" r="7.34"/><circle class="cls-2" cx="26.94" cy="113.54" r="7.34"/><circle class="cls-1" cx="145.88" cy="139.08" r="4.24"/><circle class="cls-2" cx="439.78" cy="21.34" r="7.34"/><circle class="cls-2" cx="334.63" cy="138.98" r="7.34"/><circle class="cls-2" cx="78.24" cy="227.32" r="7.34"/><circle class="cls-2" cx="244.37" cy="212.92" r="7.34"/><circle class="cls-2" cx="187.23" cy="307.03" r="7.34"/><circle class="cls-2" cx="59.51" cy="353.6" r="7.34"/><circle class="cls-2" cx="180.03" cy="437.62" r="7.34"/><circle class="cls-2" cx="311.11" cy="379.05" r="7.34"/><circle class="cls-2" cx="391.77" cy="260.45" r="7.34"/><circle class="cls-1" cx="293.77" cy="66.58" r="4.24"/><circle class="cls-1" cx="4.24" cy="193.82" r="4.24"/><circle class="cls-1" cx="176.13" cy="245.67" r="4.24"/><circle class="cls-1" cx="70.98" cy="295.12" r="4.24"/><circle class="cls-1" cx="70.98" cy="430.52" r="4.24"/><circle class="cls-1" cx="235.67" cy="381.07" r="4.24"/><circle class="cls-1" cx="289.93" cy="301.85" r="4.24"/><circle class="cls-1" cx="421" cy="185.65" r="4.24"/><circle class="cls-1" cx="339.38" cy="459.81" r="4.24"/><circle class="cls-1" cx="435.89" cy="335.94" r="4.24"/><circle class="cls-1" cx="544.42" cy="459.47" r="4.24"/><circle class="cls-2" cx="672.23" cy="486.55" r="7.34"/><circle class="cls-2" cx="523.94" cy="547.54" r="7.34"/><circle class="cls-1" cx="642.88" cy="573.08" r="4.24"/><circle class="cls-2" cx="936.78" cy="455.34" r="7.34"/><circle class="cls-2" cx="831.63" cy="572.98" r="7.34"/><circle class="cls-2" cx="575.24" cy="661.32" r="7.34"/><circle class="cls-2" cx="741.37" cy="646.92" r="7.34"/><circle class="cls-2" cx="684.23" cy="741.03" r="7.34"/><circle class="cls-2" cx="556.51" cy="787.6" r="7.34"/><circle class="cls-2" cx="677.03" cy="871.62" r="7.34"/><circle class="cls-2" cx="808.11" cy="813.05" r="7.34"/><circle class="cls-2" cx="888.77" cy="694.45" r="7.34"/><circle class="cls-1" cx="790.77" cy="500.58" r="4.24"/><circle class="cls-1" cx="501.24" cy="627.82" r="4.24"/><circle class="cls-1" cx="673.13" cy="679.67" r="4.24"/><circle class="cls-1" cx="567.98" cy="729.12" r="4.24"/><circle class="cls-1" cx="567.98" cy="864.52" r="4.24"/><circle class="cls-1" cx="732.67" cy="815.07" r="4.24"/><circle class="cls-1" cx="786.93" cy="735.85" r="4.24"/><circle class="cls-1" cx="918" cy="619.65" r="4.24"/><circle class="cls-1" cx="836.38" cy="893.81" r="4.24"/><circle class="cls-1" cx="932.89" cy="769.94" r="4.24"/><circle class="cls-1" cx="59.42" cy="470.47" r="4.24"/><circle class="cls-2" cx="187.23" cy="497.55" r="7.34"/><circle class="cls-2" cx="38.94" cy="558.54" r="7.34"/><circle class="cls-1" cx="157.88" cy="584.08" r="4.24"/><circle class="cls-2" cx="451.78" cy="466.34" r="7.34"/><circle class="cls-2" cx="346.63" cy="583.98" r="7.34"/><circle class="cls-2" cx="90.24" cy="672.32" r="7.34"/><circle class="cls-2" cx="256.37" cy="657.92" r="7.34"/><circle class="cls-2" cx="199.23" cy="752.03" r="7.34"/><circle class="cls-2" cx="71.51" cy="798.6" r="7.34"/><circle class="cls-2" cx="192.03" cy="882.62" r="7.34"/><circle class="cls-2" cx="323.11" cy="824.05" r="7.34"/><circle class="cls-2" cx="403.77" cy="705.45" r="7.34"/><circle class="cls-1" cx="305.77" cy="511.58" r="4.24"/><circle class="cls-1" cx="16.24" cy="638.82" r="4.24"/><circle class="cls-1" cx="188.13" cy="690.67" r="4.24"/><circle class="cls-1" cx="82.98" cy="740.12" r="4.24"/><circle class="cls-1" cx="82.98" cy="875.52" r="4.24"/><circle class="cls-1" cx="247.67" cy="826.07" r="4.24"/><circle class="cls-1" cx="301.93" cy="746.85" r="4.24"/><circle class="cls-1" cx="433" cy="630.65" r="4.24"/><circle class="cls-1" cx="351.38" cy="904.81" r="4.24"/><circle class="cls-1" cx="447.89" cy="780.94" r="4.24"/></svg>