<svg id="Lager_1" data-name="Lager 1" xmlns="http://www.w3.org/2000/svg" viewBox="0 0 982.28 966.27"><defs><style>.cls-1{fill:#fff;}</style></defs><title>starsMobile</title><circle class="cls-1" cx="22.69" cy="653.34" r="3.98"/><circle class="cls-1" cx="106.33" cy="647.28" r="2.77"/><circle class="cls-1" cx="82.08" cy="741.14" r="2.77"/><circle class="cls-1" cx="20.78" cy="782.36" r="2.77"/><circle class="cls-1" cx="145.47" cy="814.92" r="4.16"/><circle class="cls-1" cx="185.64" cy="743.57" r="2.77"/><circle class="cls-1" cx="281.93" cy="668.06" r="2.77"/><circle class="cls-1" cx="205.04" cy="640.01" r="2.77"/><circle class="cls-1" cx="295.09" cy="812.49" r="2.77"/><circle class="cls-1" cx="52.65" cy="862.02" r="2.77"/><circle class="cls-1" cx="228.94" cy="860.63" r="2.77"/><circle class="cls-1" cx="2.77" cy="963.5" r="2.77"/><circle class="cls-1" cx="301.5" cy="887.48" r="3.98"/><circle class="cls-1" cx="145.47" cy="916.74" r="2.77"/><circle class="cls-1" cx="79.86" cy="584.14" r="2.77" transform="translate(-511.72 458.78) rotate(-72.19)"/><circle class="cls-1" cx="204.29" cy="580.46" r="3.64" transform="translate(-421.84 574.69) rotate(-72.19)"/><circle class="cls-1" cx="142.83" cy="529.5" r="2.77" transform="translate(-415.98 480.8) rotate(-72.19)"/><circle class="cls-1" cx="314.04" cy="581.02" r="2.77" transform="translate(-346.19 679.57) rotate(-72.19)"/><circle class="cls-1" cx="47.59" cy="511.81" r="2.77" transform="translate(-465.24 377.85) rotate(-72.19)"/><circle class="cls-1" cx="254.72" cy="982.78" r="2.77" transform="translate(-769.87 901.96) rotate(-72.19)"/><circle class="cls-1" cx="403.03" cy="963" r="2.77" transform="translate(-648.09 1029.45) rotate(-72.19)"/><circle class="cls-1" cx="401.99" cy="852.68" r="2.77" transform="translate(-543.77 951.87) rotate(-72.19)"/><circle class="cls-1" cx="338.02" cy="768.07" r="4.04" transform="translate(-507.63 832.24) rotate(-72.19)"/><circle class="cls-1" cx="440.5" cy="735.06" r="2.77" transform="translate(-405.07 906.9) rotate(-72.19)"/><circle class="cls-1" cx="399.91" cy="673.65" r="2.77" transform="translate(-374.78 825.63) rotate(-72.19)"/><circle class="cls-1" cx="259.92" cy="494.63" r="2.77" transform="translate(-301.51 568.08) rotate(-72.19)"/><circle class="cls-1" cx="411.52" cy="612.93" r="4.13" transform="translate(-308.9 794.52) rotate(-72.19)"/><circle class="cls-1" cx="408.76" cy="529.5" r="2.77" transform="translate(-231.39 733.99) rotate(-72.19)"/><circle class="cls-1" cx="497.23" cy="626.82" r="2.77" transform="translate(-262.63 885.77) rotate(-72.19)"/><circle class="cls-1" cx="572.69" cy="626.34" r="3.98"/><circle class="cls-1" cx="656.33" cy="620.28" r="2.77"/><circle class="cls-1" cx="632.08" cy="714.14" r="2.77"/><circle class="cls-1" cx="570.78" cy="755.36" r="2.77"/><circle class="cls-1" cx="695.47" cy="787.92" r="4.16"/><circle class="cls-1" cx="735.64" cy="716.57" r="2.77"/><circle class="cls-1" cx="831.93" cy="641.06" r="2.77"/><circle class="cls-1" cx="755.04" cy="613.01" r="2.77"/><circle class="cls-1" cx="845.09" cy="785.49" r="2.77"/><circle class="cls-1" cx="602.65" cy="835.02" r="2.77"/><circle class="cls-1" cx="778.94" cy="833.63" r="2.77"/><circle class="cls-1" cx="552.77" cy="936.5" r="2.77"/><circle class="cls-1" cx="851.5" cy="860.48" r="3.98"/><circle class="cls-1" cx="695.47" cy="889.74" r="2.77"/><circle class="cls-1" cx="629.86" cy="557.14" r="2.77" transform="translate(-104.23 963.68) rotate(-72.19)"/><circle class="cls-1" cx="754.29" cy="553.46" r="3.64" transform="translate(-14.36 1079.59) rotate(-72.19)"/><circle class="cls-1" cx="692.83" cy="502.5" r="2.77" transform="translate(-8.5 985.7) rotate(-72.19)"/><circle class="cls-1" cx="864.04" cy="554.02" r="2.77" transform="translate(61.3 1184.47) rotate(-72.19)"/><circle class="cls-1" cx="597.59" cy="484.81" r="2.77" transform="translate(-57.76 882.75) rotate(-72.19)"/><circle class="cls-1" cx="804.72" cy="955.78" r="2.77" transform="matrix(0.31, -0.95, 0.95, 0.31, -362.39, 1406.86)"/><circle class="cls-1" cx="953.03" cy="936" r="2.77" transform="translate(-240.61 1534.35) rotate(-72.19)"/><circle class="cls-1" cx="951.99" cy="825.68" r="2.77" transform="translate(-136.29 1456.77) rotate(-72.19)"/><circle class="cls-1" cx="888.02" cy="741.07" r="4.04" transform="translate(-100.14 1337.14) rotate(-72.19)"/><circle class="cls-1" cx="990.5" cy="708.06" r="2.77" transform="translate(2.42 1411.8) rotate(-72.19)"/><circle class="cls-1" cx="949.91" cy="646.65" r="2.77" transform="translate(32.71 1330.53) rotate(-72.19)"/><circle class="cls-1" cx="809.92" cy="467.63" r="2.77" transform="translate(105.97 1072.98) rotate(-72.19)"/><circle class="cls-1" cx="961.52" cy="585.93" r="4.13" transform="translate(98.58 1299.42) rotate(-72.19)"/><circle class="cls-1" cx="958.76" cy="502.5" r="2.77" transform="translate(176.09 1238.89) rotate(-72.19)"/><circle class="cls-1" cx="53.33" cy="143.28" r="2.77"/><circle class="cls-1" cx="29.08" cy="237.14" r="2.77"/><circle class="cls-1" cx="92.47" cy="310.92" r="4.16"/><circle class="cls-1" cx="132.64" cy="239.57" r="2.77"/><circle class="cls-1" cx="228.93" cy="164.06" r="2.77"/><circle class="cls-1" cx="152.04" cy="136.01" r="2.77"/><circle class="cls-1" cx="242.09" cy="308.49" r="2.77"/><circle class="cls-1" cx="175.94" cy="356.63" r="2.77"/><circle class="cls-1" cx="248.5" cy="383.48" r="3.98"/><circle class="cls-1" cx="92.47" cy="412.74" r="2.77"/><circle class="cls-1" cx="26.86" cy="80.14" r="2.77" transform="translate(-68.66 58.47) rotate(-72.19)"/><circle class="cls-1" cx="151.29" cy="76.46" r="3.64" transform="translate(21.22 174.38) rotate(-72.19)"/><circle class="cls-1" cx="89.83" cy="25.5" r="2.77" transform="translate(27.07 80.5) rotate(-72.19)"/><circle class="cls-1" cx="261.04" cy="77.02" r="2.77" transform="translate(96.87 279.27) rotate(-72.19)"/><circle class="cls-1" cx="201.72" cy="478.78" r="2.77" transform="translate(-326.81 501.66) rotate(-72.19)"/><circle class="cls-1" cx="350.03" cy="459" r="2.77" transform="translate(-205.03 629.14) rotate(-72.19)"/><circle class="cls-1" cx="348.99" cy="348.68" r="2.77" transform="translate(-100.72 551.57) rotate(-72.19)"/><circle class="cls-1" cx="285.02" cy="264.07" r="4.04" transform="translate(-64.57 431.93) rotate(-72.19)"/><circle class="cls-1" cx="387.5" cy="231.06" r="2.77" transform="translate(37.99 506.59) rotate(-72.19)"/><circle class="cls-1" cx="346.91" cy="169.65" r="2.77" transform="translate(68.28 425.32) rotate(-72.19)"/><circle class="cls-1" cx="358.52" cy="108.93" r="4.13" transform="translate(134.15 394.21) rotate(-72.19)"/><circle class="cls-1" cx="355.76" cy="25.5" r="2.77" transform="translate(211.67 333.68) rotate(-72.19)"/><circle class="cls-1" cx="444.23" cy="122.82" r="2.77" transform="translate(180.42 485.46) rotate(-72.19)"/><circle class="cls-1" cx="519.69" cy="122.34" r="3.98"/><circle class="cls-1" cx="603.33" cy="116.28" r="2.77"/><circle class="cls-1" cx="579.08" cy="210.14" r="2.77"/><circle class="cls-1" cx="517.78" cy="251.36" r="2.77"/><circle class="cls-1" cx="642.47" cy="283.92" r="4.16"/><circle class="cls-1" cx="682.64" cy="212.57" r="2.77"/><circle class="cls-1" cx="778.93" cy="137.06" r="2.77"/><circle class="cls-1" cx="702.04" cy="109.01" r="2.77"/><circle class="cls-1" cx="792.09" cy="281.49" r="2.77"/><circle class="cls-1" cx="549.65" cy="331.02" r="2.77"/><circle class="cls-1" cx="725.94" cy="329.63" r="2.77"/><circle class="cls-1" cx="499.77" cy="432.5" r="2.77"/><circle class="cls-1" cx="798.5" cy="356.48" r="3.98"/><circle class="cls-1" cx="642.47" cy="385.74" r="2.77"/><circle class="cls-1" cx="576.86" cy="53.14" r="2.77" transform="translate(338.82 563.37) rotate(-72.19)"/><circle class="cls-1" cx="701.29" cy="49.46" r="3.64" transform="translate(428.7 679.28) rotate(-72.19)"/><circle class="cls-1" cx="811.04" cy="50.02" r="2.77" transform="translate(504.35 784.17) rotate(-72.19)"/><circle class="cls-1" cx="751.72" cy="451.78" r="2.77" transform="matrix(0.31, -0.95, 0.95, 0.31, 80.67, 1006.56)"/><circle class="cls-1" cx="900.03" cy="432" r="2.77" transform="translate(202.45 1134.04) rotate(-72.19)"/><circle class="cls-1" cx="898.99" cy="321.68" r="2.77" transform="translate(306.77 1056.47) rotate(-72.19)"/><circle class="cls-1" cx="835.02" cy="237.07" r="4.04" transform="translate(342.91 936.83) rotate(-72.19)"/><circle class="cls-1" cx="937.5" cy="204.06" r="2.77" transform="translate(445.47 1011.49) rotate(-72.19)"/><circle class="cls-1" cx="896.91" cy="142.65" r="2.77" transform="translate(475.76 930.22) rotate(-72.19)"/><circle class="cls-1" cx="908.52" cy="81.93" r="4.13" transform="translate(541.63 899.11) rotate(-72.19)"/></svg>