<svg id="Lager_1" data-name="Lager 1" xmlns="http://www.w3.org/2000/svg" viewBox="0 0 1920 1080"><defs><style>.cls-1{fill:#fff;}</style></defs><title>Rityta 1</title><circle class="cls-1" cx="307.21" cy="532.59" r="1.75"/><circle class="cls-1" cx="428.08" cy="516" r="1.75"/><circle class="cls-1" cx="421.56" cy="589.33" r="1.75" transform="translate(-164.73 163.55) rotate(-18.43)"/><circle class="cls-1" cx="391.42" cy="660.87" r="1.75"/><circle class="cls-1" cx="502.25" cy="540" r="1.75"/><circle class="cls-1" cx="312.88" cy="608.51" r="1.75"/><circle class="cls-1" cx="44.85" cy="568.04" r="1.75"/><circle class="cls-1" cx="165.72" cy="551.46" r="1.75"/><circle class="cls-1" cx="159.57" cy="624.05" r="2.32" transform="translate(-189.15 82.48) rotate(-18.43)"/><circle class="cls-1" cx="140.07" cy="208.33" r="1.75"/><circle class="cls-1" cx="239.9" cy="575.46" r="1.75"/><circle class="cls-1" cx="50.52" cy="643.96" r="1.75"/><circle class="cls-1" cx="256.87" cy="652.77" r="1.75" transform="translate(-384.12 367.78) rotate(-44.55)"/><circle class="cls-1" cx="364.48" cy="239.27" r="1.75" transform="translate(-63.12 324.45) rotate(-44.55)"/><circle class="cls-1" cx="307.66" cy="286.06" r="1.75" transform="translate(-86.94 430.21) rotate(-62.98)"/><circle class="cls-1" cx="235.53" cy="314.78" r="1.75" transform="translate(-153.14 255.69) rotate(-44.55)"/><circle class="cls-1" cx="399.42" cy="308.97" r="1.75" transform="translate(-101.97 368.99) rotate(-44.55)"/><circle class="cls-1" cx="219" cy="220.82" r="3" transform="translate(-91.98 217.09) rotate(-44.55)"/><circle class="cls-1" cx="85.5" cy="241.88" r="1.75" transform="translate(-162.61 176.62) rotate(-55.8)"/><circle class="cls-1" cx="194.78" cy="296.11" r="1.75" transform="translate(-159.61 290.75) rotate(-55.8)"/><circle class="cls-1" cx="148.17" cy="353.09" r="1.75" transform="translate(-231.9 399.73) rotate(-74.23)"/><circle class="cls-1" cx="83.03" cy="395.32" r="1.75" transform="translate(-290.59 241.77) rotate(-55.8)"/><circle class="cls-1" cx="47.51" cy="307.86" r="1.75" transform="translate(-233.81 174.09) rotate(-55.8)"/><circle class="cls-1" cx="1634.04" cy="34.09" r="1.72"/><circle class="cls-1" cx="1514.72" cy="17.72" r="1.72"/><circle class="cls-1" cx="1521.15" cy="90.11" r="1.72" transform="translate(954.64 1504.7) rotate(-71.57)"/><circle class="cls-1" cx="1550.9" cy="160.74" r="1.72"/><circle class="cls-1" cx="1441.49" cy="41.42" r="1.72"/><circle class="cls-1" cx="1628.86" cy="108.63" r="2.14"/><circle class="cls-1" cx="1893.04" cy="69.09" r="1.72"/><circle class="cls-1" cx="1773.72" cy="52.72" r="1.72"/><circle class="cls-1" cx="1780.15" cy="125.11" r="1.72" transform="translate(1098.53 1774.34) rotate(-71.57)"/><circle class="cls-1" cx="1809.9" cy="195.74" r="1.72"/><circle class="cls-1" cx="1700.49" cy="76.42" r="1.72"/><circle class="cls-1" cx="1887.44" cy="144.05" r="1.72"/><circle class="cls-1" cx="1683.73" cy="152.74" r="1.72" transform="translate(393.7 1245.48) rotate(-45.45)"/><circle class="cls-1" cx="1588.35" cy="226.29" r="1.72" transform="translate(312.82 1199.47) rotate(-45.45)"/><circle class="cls-1" cx="1644.45" cy="272.48" r="1.72" transform="translate(55.66 776.69) rotate(-27.02)"/><circle class="cls-1" cx="1715.66" cy="300.83" r="1.72" transform="translate(297.69 1312.44) rotate(-45.45)"/><circle class="cls-1" cx="1591.87" cy="330.1" r="1.72" transform="translate(239.89 1232.95) rotate(-45.45)"/><circle class="cls-1" cx="1733.75" cy="208.78" r="2.25" transform="translate(368.69 1297.85) rotate(-45.45)"/><circle class="cls-1" cx="1863.77" cy="228.87" r="1.72" transform="translate(193.7 1087.29) rotate(-34.2)"/><circle class="cls-1" cx="1755.89" cy="282.4" r="1.72" transform="translate(144.94 1035.9) rotate(-34.2)"/><circle class="cls-1" cx="1801.9" cy="338.65" r="1.72" transform="translate(-24.22 502.43) rotate(-15.77)"/><circle class="cls-1" cx="1866.21" cy="380.34" r="1.72" transform="translate(108.97 1114.86) rotate(-34.2)"/><circle class="cls-1" cx="1901.28" cy="294" r="1.72" transform="translate(163.57 1119.64) rotate(-34.2)"/><circle class="cls-1" cx="319.48" cy="335.27" r="1.75" transform="translate(-143.39 320.47) rotate(-44.55)"/><circle class="cls-1" cx="262.66" cy="382.06" r="1.75" transform="translate(-197.02 442.52) rotate(-62.98)"/><circle class="cls-1" cx="354.42" cy="404.97" r="1.75" transform="translate(-182.25 365.01) rotate(-44.55)"/><circle class="cls-1" cx="552.53" cy="218.78" r="1.75" transform="translate(5.3 450.48) rotate(-44.55)"/><circle class="cls-1" cx="511.78" cy="200.11" r="1.75" transform="translate(58.59 510.89) rotate(-55.8)"/><circle class="cls-1" cx="465.17" cy="257.09" r="1.75" transform="translate(91.34 634.89) rotate(-74.23)"/><circle class="cls-1" cx="181.16" cy="397.91" r="2.84"/><circle class="cls-1" cx="173.56" cy="472.33" r="1.75" transform="translate(-140.46 79.12) rotate(-18.43)"/><circle class="cls-1" cx="254.25" cy="423" r="1.75"/><circle class="cls-1" cx="334.21" cy="54.59" r="1.75"/><circle class="cls-1" cx="455.08" cy="38" r="1.75"/><circle class="cls-1" cx="448.56" cy="111.33" r="1.75" transform="translate(-12.19 147.56) rotate(-18.43)"/><circle class="cls-1" cx="418.42" cy="182.87" r="1.75"/><circle class="cls-1" cx="529.25" cy="62" r="1.75"/><circle class="cls-1" cx="339.88" cy="130.51" r="1.75"/><circle class="cls-1" cx="71.85" cy="90.04" r="1.75"/><circle class="cls-1" cx="192.72" cy="73.46" r="1.75"/><circle class="cls-1" cx="186.2" cy="146.78" r="1.75" transform="translate(-36.86 66.42) rotate(-18.43)"/><circle class="cls-1" cx="266.9" cy="97.46" r="1.75"/><circle class="cls-1" cx="77.52" cy="165.96" r="1.75"/><circle class="cls-1" cx="283.87" cy="174.77" r="1.75" transform="translate(-41.03 249.37) rotate(-44.55)"/><circle class="cls-1" cx="81.66" cy="467.06" r="1.75" transform="translate(-371.53 327.66) rotate(-62.98)"/><circle class="cls-1" cx="73.25" cy="508" r="1.75"/><circle class="cls-1" cx="542.48" cy="431.27" r="1.75" transform="translate(-146.66 504.5) rotate(-44.55)"/><circle class="cls-1" cx="596.42" cy="374.87" r="1.75"/><circle class="cls-1" cx="517.88" cy="322.51" r="1.75"/><circle class="cls-1" cx="461.87" cy="366.77" r="1.75" transform="translate(-124.57 429.41) rotate(-44.55)"/><circle class="cls-1" cx="491.02" cy="620.68" r="1.75" transform="matrix(0.86, -0.52, 0.52, 0.86, -249.62, 341.77)"/><circle class="cls-1" cx="523.22" cy="686.88" r="1.75" transform="translate(-338.85 637.92) rotate(-49.45)"/><circle class="cls-1" cx="566.96" cy="603.02" r="1.75" transform="translate(-229.67 378.38) rotate(-31.02)"/><circle class="cls-1" cx="1011.21" cy="537.59" r="1.75"/><circle class="cls-1" cx="1132.08" cy="521" r="1.75"/><circle class="cls-1" cx="1125.56" cy="594.33" r="1.75" transform="translate(-130.18 386.43) rotate(-18.43)"/><circle class="cls-1" cx="1095.42" cy="665.87" r="1.75"/><circle class="cls-1" cx="1206.25" cy="545" r="1.75"/><circle class="cls-1" cx="1016.88" cy="613.51" r="1.75"/><circle class="cls-1" cx="748.85" cy="573.04" r="1.75"/><circle class="cls-1" cx="869.72" cy="556.46" r="1.75"/><circle class="cls-1" cx="863.2" cy="629.78" r="1.75" transform="translate(-154.86 305.29) rotate(-18.43)"/><circle class="cls-1" cx="844.07" cy="213.33" r="1.75"/><circle class="cls-1" cx="943.9" cy="580.46" r="1.75"/><circle class="cls-1" cx="754.52" cy="648.96" r="1.75"/><circle class="cls-1" cx="960.87" cy="657.77" r="1.75" transform="translate(-185.33 863.1) rotate(-44.55)"/><circle class="cls-1" cx="1068.48" cy="244.27" r="1.75" transform="translate(135.68 819.76) rotate(-44.55)"/><circle class="cls-1" cx="1011.66" cy="291.06" r="1.75" transform="translate(292.83 1060.13) rotate(-62.98)"/><circle class="cls-1" cx="939.53" cy="319.78" r="1.75" transform="translate(45.65 751) rotate(-44.55)"/><circle class="cls-1" cx="1103.42" cy="313.97" r="1.75" transform="translate(96.82 864.3) rotate(-44.55)"/><circle class="cls-1" cx="922" cy="226.82" r="2" transform="translate(105.83 711.99) rotate(-44.55)"/><circle class="cls-1" cx="789.5" cy="246.88" r="1.75" transform="translate(141.51 761.05) rotate(-55.8)"/><circle class="cls-1" cx="898.78" cy="301.11" r="1.75" transform="translate(144.51 875.18) rotate(-55.8)"/><circle class="cls-1" cx="852.17" cy="358.09" r="1.75" transform="translate(275.97 1080.88) rotate(-74.23)"/><circle class="cls-1" cx="787.03" cy="400.32" r="1.75" transform="translate(13.53 826.19) rotate(-55.8)"/><circle class="cls-1" cx="751.51" cy="312.86" r="1.75" transform="translate(70.3 758.52) rotate(-55.8)"/><circle class="cls-1" cx="1023.48" cy="340.27" r="1.75" transform="translate(55.4 815.78) rotate(-44.55)"/><circle class="cls-1" cx="966.66" cy="387.06" r="1.75" transform="translate(182.75 1072.43) rotate(-62.98)"/><circle class="cls-1" cx="1058.42" cy="409.97" r="1.75" transform="translate(16.54 860.32) rotate(-44.55)"/><circle class="cls-1" cx="1308.53" cy="297.78" r="1.75" transform="translate(167.12 1003.54) rotate(-44.55)"/><circle class="cls-1" cx="1215.78" cy="205.11" r="1.75" transform="translate(362.7 1095.31) rotate(-55.8)"/><circle class="cls-1" cx="1169.17" cy="262.09" r="1.75" transform="translate(599.21 1316.04) rotate(-74.23)"/><circle class="cls-1" cx="884.08" cy="404" r="1.75"/><circle class="cls-1" cx="877.56" cy="477.33" r="1.75" transform="translate(-105.91 302) rotate(-18.43)"/><circle class="cls-1" cx="958.25" cy="428" r="1.75"/><circle class="cls-1" cx="1038.21" cy="59.59" r="1.75"/><circle class="cls-1" cx="1159.08" cy="43" r="1.75"/><circle class="cls-1" cx="1152.56" cy="116.33" r="1.75" transform="translate(22.36 370.44) rotate(-18.43)"/><circle class="cls-1" cx="1122.42" cy="187.87" r="1.75"/><circle class="cls-1" cx="1044.26" cy="135.13" r="2.13"/><circle class="cls-1" cx="775.85" cy="95.04" r="1.75"/><circle class="cls-1" cx="896.72" cy="78.46" r="1.75"/><circle class="cls-1" cx="890.2" cy="151.78" r="1.75" transform="translate(-2.31 289.3) rotate(-18.43)"/><circle class="cls-1" cx="970.9" cy="102.46" r="1.75"/><circle class="cls-1" cx="781.52" cy="170.96" r="1.75"/><circle class="cls-1" cx="989.39" cy="178.26" r="3.26" transform="translate(159.26 745.3) rotate(-44.55)"/><circle class="cls-1" cx="785.66" cy="472.06" r="1.75" transform="translate(8.24 957.57) rotate(-62.98)"/><circle class="cls-1" cx="606.25" cy="513" r="1.75"/><circle class="cls-1" cx="1246.48" cy="436.27" r="1.75" transform="translate(52.13 999.81) rotate(-44.55)"/><circle class="cls-1" cx="1300.42" cy="379.87" r="1.75"/><circle class="cls-1" cx="1221.88" cy="327.51" r="1.75"/><circle class="cls-1" cx="1165.87" cy="371.77" r="1.75" transform="translate(74.22 924.72) rotate(-44.55)"/><circle class="cls-1" cx="1195.02" cy="625.68" r="1.75" transform="translate(-151.54 705.25) rotate(-31.02)"/><circle class="cls-1" cx="1227.22" cy="691.88" r="1.75" transform="translate(-96.31 1174.62) rotate(-49.45)"/><circle class="cls-1" cx="1270.96" cy="608.02" r="1.75" transform="matrix(0.86, -0.52, 0.52, 0.86, -131.58, 741.86)"/><circle class="cls-1" cx="533.75" cy="1025.33" r="1.75" transform="translate(-493.04 1556.28) rotate(-89.84)"/><circle class="cls-1" cx="517.49" cy="904.42" r="1.75" transform="translate(-388.34 1419.44) rotate(-89.84)"/><circle class="cls-1" cx="590.8" cy="911.14" r="1.75" transform="translate(-255.96 231.27) rotate(-18.28)"/><circle class="cls-1" cx="662.26" cy="941.47" r="1.75" transform="translate(-281.01 1601.16) rotate(-89.84)"/><circle class="cls-1" cx="541.7" cy="830.31" r="1.75" transform="translate(-290.09 1369.73) rotate(-89.84)"/><circle class="cls-1" cx="609.68" cy="1019.87" r="1.75" transform="translate(-411.85 1626.77) rotate(-89.84)"/><circle class="cls-1" cx="1780.48" cy="1046.79" r="1.75" transform="translate(728.84 2824.4) rotate(-89.84)"/><circle class="cls-1" cx="1764.23" cy="925.87" r="1.75" transform="translate(833.55 2687.57) rotate(-89.84)"/><circle class="cls-1" cx="1837.54" cy="932.59" r="1.75" transform="translate(-199.78 623.37) rotate(-18.28)"/><circle class="cls-1" cx="1421.03" cy="950.59" r="1.75" transform="translate(466.57 2369.02) rotate(-89.84)"/><circle class="cls-1" cx="1788.43" cy="851.76" r="1.75" transform="translate(931.79 2637.86) rotate(-89.84)"/><circle class="cls-1" cx="1856.42" cy="1041.32" r="1.75" transform="translate(810.04 2894.89) rotate(-89.84)"/><circle class="cls-1" cx="1865.79" cy="834.99" r="1.75" transform="translate(-51.56 1543.61) rotate(-44.39)"/><circle class="cls-1" cx="240.59" cy="967.26" r="1.75" transform="translate(-608 444.41) rotate(-44.39)"/><circle class="cls-1" cx="287.23" cy="1024.21" r="1.75" transform="translate(-755.12 812.02) rotate(-62.83)"/><circle class="cls-1" cx="1527.74" cy="855.41" r="1.75" transform="translate(-162.34 1312.95) rotate(-44.39)"/><circle class="cls-1" cx="310.38" cy="932.51" r="1.75" transform="translate(-563.77 483.32) rotate(-44.39)"/><circle class="cls-1" cx="1434.99" cy="872.95" r="1.75" transform="translate(-201.08 1253.07) rotate(-44.39)"/><circle class="cls-1" cx="1454.44" cy="1005.25" r="1.75" transform="translate(-196.28 1638.53) rotate(-55.64)"/><circle class="cls-1" cx="1509.61" cy="895.47" r="2.39" transform="translate(-81.62 1636.26) rotate(-55.64)"/><circle class="cls-1" cx="1565.82" cy="942.88" r="1.75" transform="translate(229.49 2189.88) rotate(-74.07)"/><circle class="cls-1" cx="1607.87" cy="1008.13" r="1.75" transform="translate(-131.83 1766.45) rotate(-55.64)"/><circle class="cls-1" cx="1520.31" cy="1043.42" r="1.75" transform="translate(-199.09 1709.54) rotate(-55.64)"/><circle class="cls-1" cx="336.46" cy="1012.52" r="1.75" transform="translate(-612.3 524.4) rotate(-44.39)"/><circle class="cls-1" cx="1595.1" cy="828.47" r="1.75" transform="translate(129.64 1869.21) rotate(-62.83)"/><circle class="cls-1" cx="406.26" cy="977.77" r="1.75" transform="translate(-568.07 563.31) rotate(-44.39)"/><circle class="cls-1" cx="220.61" cy="779.15" r="1.75" transform="translate(-482.11 376.74) rotate(-44.39)"/><circle class="cls-1" cx="201.83" cy="819.85" r="1.75" transform="translate(-588.87 523.74) rotate(-55.64)"/><circle class="cls-1" cx="258.68" cy="866.62" r="1.75" transform="translate(-645.65 877.58) rotate(-74.07)"/><circle class="cls-1" cx="1611.82" cy="911.1" r="1.75" transform="translate(696.32 2520.42) rotate(-89.84)"/><circle class="cls-1" cx="1685.52" cy="917.03" r="2.37" transform="translate(-202.57 574.91) rotate(-18.28)"/><circle class="cls-1" cx="1636.02" cy="836.99" r="1.75" transform="translate(794.57 2470.72) rotate(-89.84)"/><circle class="cls-1" cx="55.82" cy="997.03" r="1.75" transform="translate(-941.36 1050.13) rotate(-89.84)"/><circle class="cls-1" cx="39.57" cy="876.12" r="1.75" transform="translate(-836.65 913.29) rotate(-89.84)"/><circle class="cls-1" cx="112.87" cy="882.83" r="1.75" transform="translate(-271.19 79.95) rotate(-18.28)"/><circle class="cls-1" cx="184.8" cy="912.71" r="2.2" transform="translate(-728.41 1095.01) rotate(-89.84)"/><circle class="cls-1" cx="63.77" cy="802" r="1.75" transform="translate(-738.4 863.58) rotate(-89.84)"/><circle class="cls-1" cx="131.76" cy="991.56" r="1.75" transform="translate(-860.16 1120.62) rotate(-89.84)"/><circle class="cls-1" cx="1302.56" cy="1018.48" r="1.75" transform="translate(280.53 2318.25) rotate(-89.84)"/><circle class="cls-1" cx="1286.31" cy="897.57" r="1.75" transform="translate(385.23 2181.42) rotate(-89.84)"/><circle class="cls-1" cx="1359.61" cy="904.28" r="1.75" transform="matrix(0.95, -0.31, 0.31, 0.95, -215.01, 472.05)"/><circle class="cls-1" cx="98.51" cy="1064.45" r="1.75" transform="translate(-966.21 1160.05) rotate(-89.84)"/><circle class="cls-1" cx="1378.5" cy="1013.02" r="1.75" transform="translate(361.72 2388.74) rotate(-89.84)"/><circle class="cls-1" cx="175.86" cy="1047.69" r="1.75" transform="translate(-682.74 422.09) rotate(-44.39)"/><circle class="cls-1" cx="1679.61" cy="1009.7" r="1.75" transform="translate(14.33 2042.86) rotate(-62.83)"/><circle class="cls-1" cx="1720.52" cy="1018.22" r="1.75" transform="translate(697.61 2735.96) rotate(-89.84)"/><circle class="cls-1" cx="433.07" cy="789.16" r="2.18" transform="translate(-360.63 1213.85) rotate(-89.39)"/><circle class="cls-1" cx="376.82" cy="735.69" r="1.75" transform="translate(-359.89 1110.5) rotate(-89.84)"/><circle class="cls-1" cx="324.25" cy="814.09" r="1.75" transform="translate(-490.73 1136.11) rotate(-89.84)"/><circle class="cls-1" cx="368.35" cy="870.21" r="1.75" transform="translate(-503.64 506.09) rotate(-44.39)"/><circle class="cls-1" cx="622.34" cy="841.76" r="1.75" transform="translate(-343.67 438.41) rotate(-30.86)"/><circle class="cls-1" cx="688.62" cy="809.74" r="1.75" transform="translate(-374.32 803.7) rotate(-49.3)"/><circle class="cls-1" cx="604.89" cy="765.77" r="1.75" transform="translate(-307.16 418.7) rotate(-30.86)"/><circle class="cls-1" cx="139.61" cy="702.15" r="1.75" transform="translate(-451.36 298.09) rotate(-44.39)"/><circle class="cls-1" cx="120.83" cy="742.85" r="1.75" transform="translate(-560.59 423.34) rotate(-55.64)"/><circle class="cls-1" cx="668.48" cy="199.27" r="1.75" transform="translate(52.3 526.22) rotate(-44.55)"/><circle class="cls-1" cx="722.42" cy="142.87" r="1.75"/><circle class="cls-1" cx="643.88" cy="90.51" r="1.75"/><circle class="cls-1" cx="588.39" cy="134.26" r="2.26" transform="translate(74.89 451.35) rotate(-44.55)"/><circle class="cls-1" cx="1401.08" cy="562" r="1.75"/><circle class="cls-1" cx="1394.56" cy="635.33" r="1.75" transform="translate(-129.34 473.6) rotate(-18.43)"/><circle class="cls-1" cx="1364.42" cy="706.87" r="1.75"/><circle class="cls-1" cx="1475.25" cy="586" r="1.75"/><circle class="cls-1" cx="1464.02" cy="666.68" r="1.75" transform="translate(-134.2 849.73) rotate(-31.02)"/><circle class="cls-1" cx="1496.22" cy="732.88" r="1.75" transform="translate(-33.33 1393.37) rotate(-49.45)"/><circle class="cls-1" cx="1541.11" cy="647.88" r="2.89" transform="translate(-113.49 886.76) rotate(-31.02)"/><circle class="cls-1" cx="1811.53" cy="528.78" r="1.75" transform="translate(149.61 1422.79) rotate(-44.55)"/><circle class="cls-1" cx="1771.47" cy="509.43" r="2.43" transform="translate(354.33 1688.13) rotate(-55.8)"/><circle class="cls-1" cx="1724.17" cy="567.09" r="1.75" transform="translate(709.86 2072.26) rotate(-74.23)"/><circle class="cls-1" cx="1801.48" cy="741.27" r="1.75" transform="translate(-2.35 1476.8) rotate(-44.55)"/><circle class="cls-1" cx="1855.84" cy="684.46" r="2.16"/><circle class="cls-1" cx="1776.88" cy="632.51" r="1.75"/><circle class="cls-1" cx="1720.87" cy="676.77" r="1.75" transform="translate(19.74 1401.72) rotate(-44.55)"/><circle class="cls-1" cx="1659.35" cy="714.29" r="1.72" transform="translate(-13.76 1395.72) rotate(-45.45)"/><circle class="cls-1" cx="1715.82" cy="759.75" r="2.3" transform="translate(-157.88 862.27) rotate(-27.02)"/><circle class="cls-1" cx="1624.87" cy="783.1" r="1.72" transform="translate(-73.09 1391.68) rotate(-45.45)"/><circle class="cls-1" cx="1529.34" cy="417.16" r="1.72" transform="translate(-43.83 612.17) rotate(-22.32)"/><circle class="cls-1" cx="1562.79" cy="481.67" r="1.72" transform="matrix(1, -0.07, 0.07, 1, -29.07, 107.1)"/><circle class="cls-1" cx="1617.13" cy="535.71" r="1.72" transform="translate(-82.28 654.41) rotate(-22.32)"/><circle class="cls-1" cx="1470.6" cy="466.89" r="1.72" transform="translate(-67.12 593.59) rotate(-22.32)"/><circle class="cls-1" cx="1661.37" cy="534.56" r="1.72" transform="translate(-71.76 329.17) rotate(-11.08)"/><circle class="cls-1" cx="692.48" cy="450.27" r="1.75" transform="translate(-116.89 615.19) rotate(-44.55)"/><circle class="cls-1" cx="638.51" cy="299.86" r="1.75" transform="translate(31.58 659.37) rotate(-55.8)"/><circle class="cls-1" cx="1252.87" cy="29.83" r="3.1"/><circle class="cls-1" cx="1297.88" cy="121.36" r="2.6" transform="translate(616.59 1232.69) rotate(-63.83)"/><circle class="cls-1" cx="1361.6" cy="174.97" r="2.6"/><circle class="cls-1" cx="1432.4" cy="252.85" r="2.6" transform="translate(573.77 1426.93) rotate(-63.83)"/><circle class="cls-1" cx="1284.73" cy="214.42" r="2.6"/><circle class="cls-1" cx="1378.79" cy="313.54" r="2.6" transform="translate(489.34 1412.74) rotate(-63.83)"/><circle class="cls-1" cx="1464.2" cy="103.56" r="1.72" transform="translate(858.97 1440.84) rotate(-69.69)"/><circle class="cls-1" cx="1445.12" cy="173.68" r="1.72" transform="translate(405.31 1192.17) rotate(-51.26)"/><circle class="cls-1" cx="1387.3" cy="100.37" r="1.72" transform="translate(811.74 1366.63) rotate(-69.69)"/><circle class="cls-1" cx="1499.9" cy="216.74" r="1.72"/><circle class="cls-1" cx="1537.35" cy="282.29" r="1.72" transform="translate(257.69 1179.84) rotate(-45.45)"/><circle class="cls-1" cx="1473.87" cy="328.1" r="1.72" transform="translate(206.09 1148.27) rotate(-45.45)"/><circle class="cls-1" cx="1411.34" cy="415.16" r="1.72" transform="translate(-51.92 567.2) rotate(-22.32)"/><circle class="cls-1" cx="1352.6" cy="464.89" r="1.72" transform="translate(-75.21 548.62) rotate(-22.32)"/><circle class="cls-1" cx="1693.66" cy="431.83" r="1.72" transform="translate(197.77 1335.86) rotate(-45.45)"/><circle class="cls-1" cx="1733.89" cy="413.4" r="1.72" transform="translate(67.5 1046.19) rotate(-34.2)"/><circle class="cls-1" cx="649.8" cy="621.71" r="2.38" transform="matrix(0.99, -0.11, 0.11, 0.99, -66.93, 78.52)"/></svg>