<svg id="Lager_1" data-name="Lager 1" xmlns="http://www.w3.org/2000/svg" viewBox="0 0 897 1461.1"><defs><style>.cls-1{fill:#5ec2dd;}.cls-2{fill:#63bae0;}.cls-3{fill:#9ad8ed;}.cls-4{fill:#4eb5d1;}</style></defs><title>iceberg</title><polygon class="cls-1" points="701.12 182.35 663.25 107.33 562.49 0 562.22 0.34 663 107.11 701.12 182.35"/><polygon class="cls-1" points="778.09 706.11 765 616.11 738 532.11 703 430.11 691 286.11 631 129.1 562.16 0.41 358.79 251.89 282.12 332.94 198.89 418.36 99.59 516.93 17.18 706.11 73 706.11 778.09 706.11"/><polygon class="cls-2" points="896.57 706.11 778.09 706.11 73 706.11 76 811.11 96 942.11 253 1288.11 343 1382.11 456 1461.11 523 1420.11 648 1321.11 774 1228.11 844 996.11 897 706.11 896.57 706.11"/><polygon class="cls-3" points="691 286.11 703 430.11 738 532.11 765 616.11 778.09 706.11 896.57 706.11 897 706.11 740 259.11 701.12 182.35 663 107.11 562.22 0.34 562 0.1 562.16 0.41 631 129.1 691 286.11"/><polygon class="cls-4" points="253 1288.11 96 942.11 76 811.11 73 706.11 17.18 706.11 17 706.11 0 811.11 67 1051.11 208 1360.11 358 1432.11 456 1461.11 343 1382.11 253 1288.11"/></svg>